<?xml version="1.0" encoding="utf-8"?>
<!-- Generator: Adobe Illustrator 27.5.0, SVG Export Plug-In . SVG Version: 6.00 Build 0)  -->
<svg version="1.1" xmlns="http://www.w3.org/2000/svg" xmlns:xlink="http://www.w3.org/1999/xlink" x="0px" y="0px"
	 viewBox="0 0 2200 2200" style="enable-background:new 0 0 2200 2200;" xml:space="preserve">
<g id="background">
	<rect style="fill:#FFFFFF;" width="2200" height="2200"/>
</g>
<g id="Objects">
	<g>
		<path style="fill:#75D344;" d="M1102.553,620.232V492.615h-0.115c-0.401,0-0.803-0.01-1.214-0.019h-0.363
			c-179.13,0-347.534,69.755-474.204,196.416C499.995,815.673,430.24,984.076,430.24,1163.197c0,20.46,0.937,41.178,2.782,61.571
			l-95.043,8.605c-2.103-23.242-3.174-46.857-3.174-70.176c0-103.39,20.269-203.711,60.223-298.19
			c38.587-91.219,93.82-173.145,164.158-243.474c70.329-70.339,152.255-125.561,243.484-164.149
			c94.47-39.954,194.8-60.214,298.19-60.214c0.555,0,1.128,0,1.692,0.01V270.586l216.723,174.828L1102.553,620.232z"/>
		<path style="fill:#75D344;" d="M629.774,1433.213l-110.52,63.809l0.057,0.099c0.201,0.348,0.393,0.7,0.591,1.061l0.182,0.315
			c89.565,155.131,234.177,266.095,407.203,312.465c173.022,46.361,353.741,22.569,508.864-66.991
			c17.719-10.23,35.193-21.401,51.931-33.195l54.974,78.008c-19.077,13.443-38.993,26.178-59.187,37.837
			c-89.538,51.695-186.553,84.302-288.352,96.94c-98.292,12.192-196.858,5.322-292.934-20.428
			c-96.079-25.737-184.867-69.076-263.899-128.789c-81.837-61.836-149.547-138.595-201.242-228.134
			c-0.277-0.48-0.564-0.977-0.838-1.47l-109.634,63.297l43.044-275.102L629.774,1433.213z"/>
		<path style="fill:#75D344;" d="M1570.226,1436.16l110.52,63.808l0.057-0.099c0.201-0.348,0.41-0.691,0.624-1.042l0.182-0.315
			c89.565-155.131,113.357-335.851,67.001-508.881c-46.361-173.022-157.325-317.633-312.448-407.194
			c-17.719-10.23-36.13-19.778-54.713-28.376l40.07-86.612c21.18,9.8,42.167,20.68,62.361,32.339
			c89.538,51.695,166.285,119.409,228.129,201.25c59.705,79.027,103.038,167.823,128.776,263.902
			c25.75,96.076,32.612,194.638,20.415,292.938c-12.633,101.791-45.254,198.809-96.949,288.347c-0.277,0.48-0.564,0.977-0.854,1.461
			l109.634,63.297l-259.767,100.274L1570.226,1436.16z"/>
		<g>
			<path style="fill:#75D344;" d="M1364.229,1424.792c-112.985,80.79-247.197,64.288-304.016,32.892
				c2.992-106.652,39.214-163.797,106.326-226.926c43.354-40.778,235.228-180.749,243.451-250.876
				c-28.438,54.479-95.459,94.121-150.287,132.885c-54.828,38.753-111.028,76.842-156.035,126.664
				c-44.996,49.833-77.911,122.131-77.056,189.265c-49.462-102.254-16.84-255.533,71.285-342.038
				c94.897-93.176,243.215-121.512,326.48-225.217C1586.51,1076.927,1563.584,1282.255,1364.229,1424.792z"/>
		</g>
		<g>
			<path style="fill:#75D344;" d="M1010.37,1463.17c-52.007,15.486-136.536,15.432-209.676-36.868
				c-155.566-111.232-173.447-271.458-46.935-439.606c63.819,79.468,176.59,102.226,250.748,171.898
				c-11.823,25.608-20.916,52.993-26.865,81.376c-0.921,4.389-1.756,8.767-2.503,13.145c-28.881-25.771-61.175-47.889-92.874-70.3
				c-42.785-30.246-95.084-61.186-117.279-103.7c6.416,54.727,156.151,163.954,189.985,195.772
				c5.527,5.202,10.794,10.349,15.768,15.497c-3.457,53.6,5.765,104.567,25.673,147.807
				C1000.747,1447.587,1005.753,1456.126,1010.37,1463.17z"/>
		</g>
	</g>
</g>
</svg>
