<?xml version="1.0" encoding="utf-8"?>
<!-- Generator: Adobe Illustrator 27.5.0, SVG Export Plug-In . SVG Version: 6.00 Build 0)  -->
<svg version="1.1" xmlns="http://www.w3.org/2000/svg" xmlns:xlink="http://www.w3.org/1999/xlink" x="0px" y="0px"
	 viewBox="0 0 2200 2200" style="enable-background:new 0 0 2200 2200;" xml:space="preserve">
<g id="background">
	<rect style="fill:#FFFFFF;" width="2200" height="2200"/>
</g>
<g id="Objects">
	<g>
		<g>
			<path d="M535.457,348.807v300.376c0,6.095,4.941,11.035,11.035,11.035h300.376c6.095,0,11.035-4.941,11.035-11.035V348.807
				c0-6.095-4.941-11.035-11.035-11.035H546.492C540.398,337.771,535.457,342.712,535.457,348.807z M578.018,380.333h237.323
				v237.323H578.018V380.333z"/>
			<path d="M767.54,422.928H625.82c-2.875,0-5.206,2.331-5.206,5.206v141.721c0,2.875,2.331,5.206,5.206,5.206H767.54
				c2.876,0,5.207-2.331,5.207-5.206V428.134C772.747,425.259,770.416,422.928,767.54,422.928z"/>
			<path d="M535.457,1475.726c0,6.095,4.941,11.035,11.035,11.035h300.376c6.095,0,11.035-4.941,11.035-11.035V1175.35
				c0-6.095-4.941-11.035-11.035-11.035H546.492c-6.095,0-11.035,4.941-11.035,11.035V1475.726z M578.018,1206.876h237.323V1444.2
				H578.018V1206.876z"/>
			<path d="M767.54,1249.471H625.82c-2.875,0-5.206,2.331-5.206,5.206v141.721c0,2.875,2.331,5.207,5.206,5.207H767.54
				c2.876,0,5.207-2.331,5.207-5.207v-141.721C772.747,1251.802,770.416,1249.471,767.54,1249.471z"/>
			<path d="M1353.132,660.218h300.375c6.095,0,11.036-4.941,11.036-11.035V348.807c0-6.095-4.941-11.035-11.036-11.035h-300.375
				c-6.095,0-11.035,4.941-11.035,11.035v300.376C1342.096,655.277,1347.037,660.218,1353.132,660.218z M1384.658,380.333h237.324
				v237.323h-237.324V380.333z"/>
			<path d="M1574.18,422.928h-141.721c-2.875,0-5.207,2.331-5.207,5.206v141.721c0,2.875,2.331,5.206,5.207,5.206h141.721
				c2.876,0,5.207-2.331,5.207-5.206V428.134C1579.386,425.259,1577.055,422.928,1574.18,422.928z"/>
			<polygon points="962.377,535.249 962.377,495.752 962.377,456.255 1001.193,456.255 1001.193,416.765 1040.002,416.765 
				1040.002,377.268 1001.193,377.268 1001.193,337.771 962.377,337.771 923.568,337.771 923.568,377.268 962.377,377.268 
				962.377,416.765 923.568,416.765 884.759,416.765 884.759,456.255 884.759,495.752 884.759,535.249 923.568,535.249 			"/>
			<polygon points="962.377,732.727 962.377,693.23 962.377,653.733 923.568,653.733 923.568,614.236 923.568,574.746 
				884.759,574.746 884.759,614.236 884.759,653.733 884.759,693.23 884.759,732.727 923.568,732.727 			"/>
			<polygon points="962.377,1406.865 962.377,1367.368 962.377,1366.46 923.568,1366.46 923.568,1326.963 923.568,1287.473 
				962.377,1287.473 1001.193,1287.473 1001.193,1286.565 1001.193,1247.068 1001.193,1207.571 1040.002,1207.571 1040.002,1206.67 
				1040.002,1167.173 1001.193,1167.173 1001.193,1206.67 962.377,1206.67 962.377,1167.173 923.568,1167.173 923.568,1127.676 
				884.759,1127.676 884.759,1167.173 884.759,1206.67 884.759,1207.571 884.759,1247.068 884.759,1286.565 884.759,1287.473 
				884.759,1326.963 884.759,1366.46 884.759,1367.368 884.759,1406.865 923.568,1406.865 			"/>
			<polygon points="884.759,1088.179 923.568,1088.179 962.377,1088.179 1001.193,1088.179 1040.002,1088.179 1040.002,1048.689 
				1078.811,1048.689 1078.811,1009.192 1117.62,1009.192 1117.62,1048.689 1156.436,1048.689 1195.245,1048.689 1195.245,1088.179 
				1195.245,1127.676 1234.054,1127.676 1234.054,1088.179 1234.054,1048.689 1234.054,1009.192 1195.245,1009.192 
				1156.436,1009.192 1156.436,969.695 1156.436,930.198 1195.245,930.198 1195.245,890.708 1195.245,851.211 1156.436,851.211 
				1117.62,851.211 1117.62,890.708 1117.62,930.198 1078.811,930.198 1078.811,969.695 1040.002,969.695 1001.193,969.695 
				962.377,969.695 923.568,969.695 884.759,969.695 884.759,1009.192 845.943,1009.192 807.134,1009.192 768.325,1009.192 
				729.516,1009.192 729.516,969.695 729.516,930.198 690.7,930.198 690.7,890.708 690.7,851.211 651.891,851.211 613.082,851.211 
				613.082,890.708 613.082,930.198 613.082,969.695 651.891,969.695 690.7,969.695 690.7,1009.192 690.7,1048.689 
				729.516,1048.689 729.516,1088.179 768.325,1088.179 768.325,1048.689 807.134,1048.689 845.943,1048.689 884.759,1048.689 			
				"/>
			<rect x="807.134" y="693.23" width="38.809" height="39.497"/>
			<rect x="807.134" y="772.217" width="38.809" height="39.497"/>
			<polygon points="807.134,851.211 807.134,890.708 845.943,890.708 884.759,890.708 884.759,930.198 923.568,930.198 
				923.568,890.708 962.377,890.708 1001.193,890.708 1001.193,851.211 1040.002,851.211 1040.002,890.708 1078.811,890.708 
				1078.811,851.211 1078.811,811.714 1078.811,772.217 1117.62,772.217 1117.62,732.727 1117.62,693.23 1156.436,693.23 
				1156.436,653.733 1156.436,614.236 1117.62,614.236 1117.62,653.733 1078.811,653.733 1078.811,693.23 1040.002,693.23 
				1040.002,732.727 1040.002,772.217 1001.193,772.217 962.377,772.217 962.377,811.714 923.568,811.714 923.568,851.211 
				884.759,851.211 845.943,851.211 			"/>
			<rect x="807.134" y="1088.179" width="38.809" height="39.497"/>
			<polygon points="768.325,930.198 768.325,969.695 807.134,969.695 845.943,969.695 845.943,930.198 807.134,930.198 
				807.134,890.708 768.325,890.708 			"/>
			<polygon points="768.325,811.714 729.509,811.714 729.509,851.211 729.509,890.708 768.325,890.708 768.325,851.211 			"/>
			<polygon points="729.509,772.217 768.325,772.217 807.134,772.217 807.134,732.727 768.325,732.727 768.325,693.23 
				729.509,693.23 690.7,693.23 651.891,693.23 651.891,732.727 651.891,772.217 690.7,772.217 			"/>
			<rect x="651.891" y="1048.689" width="38.809" height="39.49"/>
			<rect x="613.082" y="772.217" width="38.809" height="39.497"/>
			<rect x="613.082" y="1009.192" width="38.809" height="39.497"/>
			<polygon points="574.266,732.727 535.457,732.727 535.457,772.217 535.457,811.714 535.457,851.211 574.266,851.211 
				574.266,811.714 574.266,772.217 613.082,772.217 613.082,732.727 			"/>
			<polygon points="535.457,969.695 535.457,1009.192 535.457,1048.689 535.457,1088.179 574.266,1088.179 574.266,1048.689 
				574.266,1009.192 574.266,969.695 574.266,930.198 535.457,930.198 			"/>
			<polygon points="1350.487,1167.173 1350.487,1206.67 1350.487,1207.571 1389.304,1207.571 1389.304,1206.67 1390.19,1206.67 
				1390.19,1167.173 1389.304,1167.173 			"/>
			<path d="M1546.327,969.695v39.497h-38.809v39.497h-38.816v-39.497v-39.497h-0.887h-38.816h-38.809h-0.887h-38.816v39.497v39.497
				h-38.809h-38.809v39.49v39.497v39.497v39.497v0.901v39.497v39.497h-38.816h-38.809v0.908v39.49v39.497h-38.809v0.908v39.497
				h-38.816v39.497v0.901v39.497h38.816h38.809v-39.497v-0.901v-39.497h38.809v-39.497v-0.908v-39.497h38.816h38.809v-39.49h38.809
				h38.816v-0.908h0.887v0.908h-0.887v39.49h-38.816v39.497h-38.809v0.908v39.497h-38.809v39.497v0.901v39.497h38.809h38.809
				v-39.497h38.816v-0.901h0.887v0.901h38.809v39.497h38.816h0.887v-39.497h-0.887v-0.901h0.887v-39.497h-0.887h-38.816h-38.809
				v-39.497h-0.887v-0.908h0.887v0.908h38.809h38.816v-0.908h0.887v0.908h38.816v-0.908v-39.497h38.809h0.894v-39.49h-0.894v-0.908
				h0.894v-39.497h-0.894h-38.809h-38.816v-39.497h-0.887v-0.901h0.887v-39.497v-39.497v-39.497h38.816v39.497h38.809h0.894v-39.497
				v-39.49h38.809v39.49v39.497h38.809v39.497h-38.809h-38.809h-0.894h-38.809v39.497v0.901h38.809v-0.901h0.894v0.901h38.809
				v39.497v39.497v0.908h38.809v-0.908h0.894v0.908h-0.894v39.49h-38.809v39.497v0.908h38.809v-0.908h0.894v0.908h-0.894v39.497
				h-38.809v39.497h-38.809v0.901h-0.894v39.497h0.894h38.809v-39.497h38.809v-0.901h0.894v0.901h38.809v-0.901v-39.497v-39.497
				v-0.908v-39.497v-39.49v-0.908v-39.497h-38.809v-39.497h-0.894v-0.901h0.894v-39.497h38.809v-39.497h-38.809v-39.497h38.809
				v-39.49v-39.497v-39.497h-38.809v-39.497h-0.894h-38.809v39.497h38.809v39.497h-38.809v-39.497h-38.809v-39.497h-0.894h-38.809
				v39.497H1546.327z M1390.19,1247.068h-0.887h-38.816h-38.809v-39.497v-0.901v-39.497v-39.497h38.809h38.816h0.887h38.809v39.497
				v39.497v0.901v39.497H1390.19z M1468.702,1286.565v0.908h-0.887v39.49h-38.816v-39.49h38.816v-0.908H1468.702z"/>
			<polygon points="1547.221,811.714 1546.327,811.714 1507.518,811.714 1507.518,851.211 1468.702,851.211 1467.815,851.211 
				1467.815,890.708 1428.999,890.708 1428.999,851.211 1390.19,851.211 1389.297,851.211 1350.487,851.211 1311.679,851.211 
				1272.87,851.211 1272.87,890.708 1272.87,930.198 1272.87,969.695 1311.679,969.695 1311.679,930.198 1350.487,930.198 
				1389.304,930.198 1390.19,930.198 1428.999,930.198 1467.815,930.198 1468.702,930.198 1507.518,930.198 1507.518,890.708 
				1546.327,890.708 1547.221,890.708 1547.221,851.211 1586.03,851.211 1586.03,811.714 			"/>
			<polygon points="1624.839,890.708 1625.732,890.708 1664.541,890.708 1664.541,851.211 1664.541,811.714 1664.541,772.217 
				1625.732,772.217 1625.732,732.727 1624.839,732.727 1586.03,732.727 1586.03,693.23 1547.221,693.23 1546.327,693.23 
				1507.518,693.23 1468.702,693.23 1467.815,693.23 1428.999,693.23 1390.19,693.23 1389.297,693.23 1350.487,693.23 
				1350.487,732.727 1311.679,732.727 1311.679,772.217 1311.679,811.714 1350.487,811.714 1350.487,772.217 1389.297,772.217 
				1390.19,772.217 1390.19,732.727 1428.999,732.727 1467.815,732.727 1467.815,772.217 1468.702,772.217 1507.518,772.217 
				1546.327,772.217 1547.221,772.217 1586.03,772.217 1624.839,772.217 1624.839,811.714 1624.839,851.211 1586.03,851.211 
				1586.03,890.708 			"/>
			<polygon points="1311.679,456.255 1311.679,416.765 1272.87,416.765 1234.054,416.765 1234.054,456.255 1272.87,456.255 			"/>
			<rect x="1272.87" y="614.236" width="38.809" height="39.497"/>
			<polygon points="1234.054,693.23 1234.054,732.727 1272.87,732.727 1272.87,693.23 1272.87,653.733 1234.054,653.733 			"/>
			<rect x="1195.245" y="930.198" width="38.809" height="39.497"/>
			<polygon points="1156.436,614.236 1195.245,614.236 1195.245,653.733 1234.054,653.733 1234.054,614.236 1272.87,614.236 
				1272.87,574.746 1311.679,574.746 1311.679,535.249 1311.679,495.752 1272.87,495.752 1234.054,495.752 1234.054,535.249 
				1195.245,535.249 1156.436,535.249 1156.436,574.746 			"/>
			<polygon points="1156.436,772.217 1156.436,811.714 1195.245,811.714 1234.054,811.714 1234.054,772.217 1195.245,772.217 
				1195.245,732.727 1195.245,693.23 1156.436,693.23 1156.436,732.727 			"/>
			<polygon points="1117.62,1207.571 1117.62,1247.068 1078.811,1247.068 1040.002,1247.068 1040.002,1286.565 1040.002,1287.473 
				1078.811,1287.473 1117.62,1287.473 1156.436,1287.473 1156.436,1286.565 1156.436,1247.068 1195.245,1247.068 
				1195.245,1207.571 1195.245,1206.67 1195.245,1167.173 1156.436,1167.173 1156.436,1127.676 1117.62,1127.676 1117.62,1088.179 
				1078.811,1088.179 1078.811,1127.676 1078.811,1167.173 1117.62,1167.173 1117.62,1206.67 			"/>
			<polygon points="1117.62,377.268 1156.436,377.268 1156.436,416.765 1156.436,456.255 1195.245,456.255 1195.245,416.765 
				1195.245,377.268 1195.245,337.771 1156.436,337.771 1117.62,337.771 1078.811,337.771 1078.811,377.268 1078.811,416.765 
				1117.62,416.765 			"/>
			<polygon points="1117.62,535.249 1156.436,535.249 1156.436,495.752 1117.62,495.752 1117.62,456.255 1078.811,456.255 
				1078.811,495.752 1040.002,495.752 1040.002,535.249 1078.811,535.249 1078.811,574.746 1117.62,574.746 			"/>
			<polygon points="1117.62,1366.46 1117.62,1326.963 1078.811,1326.963 1040.002,1326.963 1001.193,1326.963 1001.193,1366.46 
				1001.193,1367.368 1040.002,1367.368 1078.811,1367.368 1078.811,1406.865 1117.62,1406.865 1117.62,1367.368 			"/>
			<polygon points="1078.811,574.746 1040.002,574.746 1040.002,614.236 1040.002,653.733 1078.811,653.733 1078.811,614.236 			"/>
			<polygon points="1040.002,1486.76 1040.002,1447.263 1040.002,1446.362 1040.002,1406.865 1001.193,1406.865 1001.193,1446.362 
				962.377,1446.362 962.377,1447.263 962.377,1486.76 1001.193,1486.76 			"/>
			<rect x="962.377" y="535.249" width="38.816" height="39.497"/>
			<rect x="962.377" y="614.236" width="38.816" height="39.497"/>
			<path d="M463.068,478.345c7.835,0,14.187-6.352,14.187-14.187v-161.13c0-7.447,6.059-13.506,13.506-13.506h161.13
				c7.836,0,14.187-6.352,14.187-14.187s-6.352-14.187-14.187-14.187h-161.13c-23.093,0-41.881,18.788-41.881,41.881v161.13
				C448.881,471.993,455.232,478.345,463.068,478.345z"/>
			<path d="M666.079,1549.198c0-7.836-6.352-14.187-14.187-14.187h-161.13c-7.447,0-13.506-6.059-13.506-13.506v-161.131
				c0-7.835-6.352-14.187-14.187-14.187c-7.836,0-14.187,6.352-14.187,14.187v161.131c0,23.093,18.788,41.88,41.881,41.88h161.13
				C659.727,1563.385,666.079,1557.034,666.079,1549.198z"/>
			<path d="M1736.932,1346.187c-7.835,0-14.187,6.352-14.187,14.187v161.131c0,7.448-6.059,13.506-13.506,13.506h-161.131
				c-7.835,0-14.187,6.352-14.187,14.187c0,7.835,6.352,14.187,14.187,14.187h161.131c23.093,0,41.88-18.787,41.88-41.88v-161.131
				C1751.119,1352.539,1744.767,1346.187,1736.932,1346.187z"/>
			<path d="M1709.239,261.147h-161.131c-7.835,0-14.187,6.352-14.187,14.187s6.352,14.187,14.187,14.187h161.131
				c7.448,0,13.506,6.059,13.506,13.506v161.13c0,7.835,6.352,14.187,14.187,14.187s14.187-6.352,14.187-14.187v-161.13
				C1751.119,279.935,1732.332,261.147,1709.239,261.147z"/>
			<polygon points="1100,1563.385 1051.208,1624.426 562.582,1624.426 562.582,1938.853 1637.418,1938.853 1637.418,1624.426 
				1148.792,1624.426 			"/>
		</g>
		<g>
			<path style="fill:#FFFFFF;" d="M742.959,1777.599c-4.623-2.784-9.59-4.938-14.908-6.458c-5.317-1.518-10.288-3.038-14.909-4.558
				c-4.623-1.518-8.452-3.352-11.49-5.507c-3.038-2.15-4.558-5.251-4.558-9.307c0-2.53,0.632-4.682,1.9-6.456
				c1.264-1.772,2.911-3.197,4.938-4.273c2.023-1.074,4.179-1.866,6.458-2.375c2.279-0.503,4.492-0.759,6.646-0.759
				c3.672,0,7.565,0.729,11.681,2.183c4.113,1.457,7.374,3.703,9.78,6.743l20.321-22.221c-5.697-5.063-12.092-8.671-19.182-10.827
				c-7.092-2.15-14.432-3.228-22.029-3.228c-6.585,0-12.98,0.919-19.182,2.755c-6.206,1.837-11.68,4.59-16.428,8.26
				c-4.748,3.674-8.546,8.232-11.396,13.675c-2.849,5.445-4.273,11.775-4.273,18.991c0,7.473,1.55,13.485,4.654,18.044
				c3.101,4.557,6.994,8.23,11.68,11.015c4.682,2.786,9.747,5.004,15.193,6.648c5.441,1.647,10.508,3.292,15.193,4.938
				c4.682,1.647,8.575,3.641,11.68,5.983c3.101,2.344,4.652,5.539,4.652,9.59c0,2.406-0.602,4.496-1.804,6.266
				c-1.205,1.776-2.786,3.23-4.748,4.369c-1.964,1.141-4.177,1.994-6.646,2.565c-2.469,0.569-4.908,0.853-7.313,0.853
				c-4.938,0-9.717-1.106-14.338-3.322c-4.623-2.215-8.452-5.349-11.49-9.402l-21.082,23.171
				c6.458,5.951,13.419,10.255,20.892,12.914c7.47,2.659,15.573,3.987,24.308,3.987c6.963,0,13.579-0.886,19.847-2.659
				c6.266-1.771,11.775-4.492,16.522-8.166c4.748-3.67,8.514-8.291,11.3-13.863c2.784-5.57,4.179-12.091,4.179-19.562
				c0-7.849-1.52-14.117-4.558-18.803C751.411,1784.121,747.58,1780.384,742.959,1777.599z"/>
			<path style="fill:#FFFFFF;" d="M858.711,1820.71c-4.685,2.533-10.066,3.797-16.142,3.797c-5.318,0-10.289-1.073-14.908-3.228
				c-4.625-2.15-8.641-5.157-12.061-9.021c-3.418-3.86-6.11-8.419-8.07-13.673c-1.966-5.253-2.944-11.046-2.944-17.379
				c0-6.202,0.979-11.965,2.944-17.283c1.961-5.318,4.682-9.905,8.166-13.769c3.481-3.86,7.597-6.865,12.345-9.021
				c4.748-2.15,9.905-3.228,15.477-3.228c5.57,0,10.477,0.949,14.72,2.849c4.24,1.9,7.816,4.623,10.729,8.166l22.792-18.611
				c-2.915-3.67-6.206-6.771-9.876-9.307c-3.674-2.532-7.503-4.558-11.49-6.077c-3.989-1.52-8.042-2.626-12.155-3.324
				c-4.116-0.695-8.072-1.045-11.871-1.045c-10.51,0-20.196,1.647-29.056,4.938c-8.864,3.294-16.524,8.009-22.98,14.149
				c-6.458,6.143-11.49,13.579-15.099,22.316c-3.608,8.735-5.411,18.486-5.411,29.246c0,10.764,1.804,20.511,5.411,29.248
				c3.609,8.735,8.641,16.175,15.099,22.315c6.456,6.143,14.116,10.858,22.98,14.149c8.861,3.291,18.547,4.938,29.056,4.938
				c9.242,0,18.233-1.898,26.969-5.697c8.737-3.797,15.954-9.686,21.651-17.662l-24.69-18.422
				C867.259,1814.633,863.395,1818.178,858.711,1820.71z"/>
			<path style="fill:#FFFFFF;" d="M955.38,1713.975l-58.115,134.463h32.666l11.204-28.487h52.228l11.586,28.487h33.425
				l-58.494-134.463H955.38z M950.442,1794.881l16.334-41.782l16.522,41.782H950.442z"/>
			<polygon style="fill:#FFFFFF;" points="1149.666,1807.416 1149.286,1807.416 1092.12,1713.975 1051.858,1713.975 
				1051.858,1848.438 1081.485,1848.438 1081.485,1752.719 1081.865,1752.719 1140.551,1848.438 1179.293,1848.438 
				1179.293,1713.975 1149.666,1713.975 			"/>
			<polygon style="fill:#FFFFFF;" points="1339.01,1801.717 1338.63,1801.717 1307.672,1713.975 1262.851,1713.975 
				1262.851,1848.438 1292.479,1848.438 1292.479,1745.312 1292.858,1745.312 1326.854,1848.438 1349.455,1848.438 
				1384.779,1745.312 1385.159,1745.312 1385.159,1848.438 1414.786,1848.438 1414.786,1713.975 1370.155,1713.975 			"/>
			<polygon style="fill:#FFFFFF;" points="1472.899,1821.089 1472.899,1793.741 1531.204,1793.741 1531.204,1766.392 
				1472.899,1766.392 1472.899,1741.323 1534.621,1741.323 1534.621,1713.975 1443.272,1713.975 1443.272,1848.438 
				1538.041,1848.438 1538.041,1821.089 			"/>
		</g>
	</g>
</g>
</svg>
